<svg xmlns="http://www.w3.org/2000/svg" width="32" height="32" fill="none" viewBox="0 0 32 32"><g filter="url(#filter0_i)"><path fill="#fff" d="M3 29C2.46957 29 1.96086 28.7893 1.58579 28.4142C1.21071 28.0391 1 27.5304 1 27V5.15333C1.00176 4.58277 1.22919 4.03609 1.63264 3.63264C2.03609 3.22919 2.58277 3.00176 3.15333 3H28.8573C29.4251 3.00176 29.969 3.22807 30.3705 3.62951C30.7719 4.03096 30.9982 4.57494 31 5.14267V26.8467C30.9982 27.4172 30.7708 27.9639 30.3674 28.3674C29.9639 28.7708 29.4172 28.9982 28.8467 29H3Z"/></g><path stroke="#375BD2" stroke-linecap="round" stroke-linejoin="round" stroke-width="1.5" d="M3 29C2.46957 29 1.96086 28.7893 1.58579 28.4142C1.21071 28.0391 1 27.5304 1 27V5.15333C1.00176 4.58277 1.22919 4.03609 1.63264 3.63264C2.03609 3.22919 2.58277 3.00176 3.15333 3H28.8573C29.4251 3.00176 29.969 3.22807 30.3705 3.62951C30.7719 4.03096 30.9982 4.57494 31 5.14267V26.8467C30.9982 27.4172 30.7708 27.9639 30.3674 28.3674C29.9639 28.7708 29.4172 28.9982 28.8467 29H3Z"/><path stroke="#375BD2" stroke-linecap="round" stroke-linejoin="round" stroke-width="1.5" d="M31 9H1"/><path stroke="#375BD2" stroke-linecap="round" stroke-linejoin="round" stroke-width="1.5" d="M17 19H23"/><path stroke="#375BD2" stroke-linecap="round" stroke-linejoin="round" stroke-width="1.5" d="M9 15L13 19L9 23"/><defs><filter id="filter0_i" width="31.5" height="27.5" x=".25" y="2.25" color-interpolation-filters="sRGB" filterUnits="userSpaceOnUse"><feFlood flood-opacity="0" result="BackgroundImageFix"/><feBlend in="SourceGraphic" in2="BackgroundImageFix" mode="normal" result="shape"/><feColorMatrix in="SourceAlpha" result="hardAlpha" type="matrix" values="0 0 0 0 0 0 0 0 0 0 0 0 0 0 0 0 0 0 127 0"/><feOffset dx="-3" dy="1"/><feComposite in2="hardAlpha" k2="-1" k3="1" operator="arithmetic"/><feColorMatrix type="matrix" values="0 0 0 0 0.87451 0 0 0 0 0.905882 0 0 0 0 0.984314 0 0 0 1 0"/><feBlend in2="shape" mode="normal" result="effect1_innerShadow"/></filter></defs></svg>