<svg xmlns="http://www.w3.org/2000/svg" width="24" height="24" fill="none" viewBox="0 0 24 24"><g filter="url(#filter0_i)"><path fill="#fff" d="M12.001 22.4971C17.8 22.4971 22.501 17.7961 22.501 11.9971C22.501 6.19808 17.8 1.49707 12.001 1.49707C6.20199 1.49707 1.50098 6.19808 1.50098 11.9971C1.50098 17.7961 6.20199 22.4971 12.001 22.4971Z"/></g><path stroke="#375BD2" stroke-linecap="round" stroke-linejoin="round" stroke-width="1.5" d="M12.001 22.4971C17.8 22.4971 22.501 17.7961 22.501 11.9971C22.501 6.19808 17.8 1.49707 12.001 1.49707C6.20199 1.49707 1.50098 6.19808 1.50098 11.9971C1.50098 17.7961 6.20199 22.4971 12.001 22.4971Z"/><path stroke="#375BD2" stroke-linecap="round" stroke-linejoin="round" stroke-width="1.5" d="M16.501 11.9971H7.50098"/><path stroke="#375BD2" stroke-linecap="round" stroke-linejoin="round" stroke-width="1.5" d="M12.751 8.24707L16.501 11.9971L12.751 15.7471"/><defs><filter id="filter0_i" width="22.5" height="22.5" x=".751" y=".747" color-interpolation-filters="sRGB" filterUnits="userSpaceOnUse"><feFlood flood-opacity="0" result="BackgroundImageFix"/><feBlend in="SourceGraphic" in2="BackgroundImageFix" mode="normal" result="shape"/><feColorMatrix in="SourceAlpha" result="hardAlpha" type="matrix" values="0 0 0 0 0 0 0 0 0 0 0 0 0 0 0 0 0 0 127 0"/><feOffset dx="-3" dy="-1"/><feComposite in2="hardAlpha" k2="-1" k3="1" operator="arithmetic"/><feColorMatrix type="matrix" values="0 0 0 0 0.87451 0 0 0 0 0.905882 0 0 0 0 0.984314 0 0 0 1 0"/><feBlend in2="shape" mode="normal" result="effect1_innerShadow"/></filter></defs></svg>