<svg xmlns="http://www.w3.org/2000/svg" xmlns:svg="http://www.w3.org/2000/svg" id="svg302" width="43.438" height="42.366" version="1.1" viewBox="0 0 11.493 11.209"><metadata id="metadata299"/><g id="layer1" transform="translate(-159.807,-76.038124)"><path style="fill:#1b1817;fill-opacity:1;fill-rule:evenodd;stroke:none;stroke-width:.0352777" id="path16" d="m 165.55304,76.038124 c -3.17288,0 -5.74604,2.572808 -5.74604,5.74675 0,2.538589 1.64641,4.69265 3.92994,5.452886 0.28752,0.05256 0.39229,-0.124884 0.39229,-0.277284 0,-0.136525 -0.005,-0.497769 -0.008,-0.977194 -1.59843,0.347133 -1.93569,-0.770467 -1.93569,-0.770467 -0.26141,-0.663927 -0.63818,-0.840669 -0.63818,-0.840669 -0.52175,-0.356306 0.0395,-0.34925 0.0395,-0.34925 0.57679,0.04057 0.88018,0.592314 0.88018,0.592314 0.51258,0.878064 1.34514,0.624416 1.67252,0.477308 0.0522,-0.371122 0.20073,-0.624416 0.36477,-0.767997 -1.276,-0.145344 -2.61761,-0.638175 -2.61761,-2.840214 0,-0.627591 0.22401,-1.140178 0.59161,-1.541991 -0.0593,-0.145345 -0.25647,-0.729545 0.0564,-1.520825 0,0 0.48225,-0.154517 1.58009,0.588786 0.45826,-0.127353 0.95003,-0.190853 1.43863,-0.193323 0.48824,0.0025 0.97966,0.06597 1.43863,0.193323 1.09714,-0.743303 1.57868,-0.588786 1.57868,-0.588786 0.31362,0.79128 0.11641,1.37548 0.0575,1.520825 0.3683,0.401813 0.59055,0.9144 0.59055,1.541991 0,2.207683 -1.34373,2.693458 -2.62361,2.835628 0.20602,0.177447 0.38982,0.528108 0.38982,1.06433 0,0.767998 -0.007,1.387828 -0.007,1.576211 0,0.153812 0.10372,0.33267 0.39511,0.276578 2.28177,-0.761647 3.92677,-2.913944 3.92677,-5.45218 0,-3.173942 -2.57316,-5.74675 -5.7471,-5.74675"/></g></svg>